<svg xmlns="http://www.w3.org/2000/svg" xmlns:xlink="http://www.w3.org/1999/xlink" fill="none" version="1.1" width="20.000015258789062" height="20" viewBox="0 0 20.000015258789062 20"><defs><clipPath id="master_svg0_0_10329"><rect x="0" y="0" width="20.000015258789062" height="20" rx="0"/></clipPath></defs><g clip-path="url(#master_svg0_0_10329)"><g><path d="M5,9C5,9,5,7,5,7C5,4.23858,7.23858,2,10,2C12.76142,2,15,4.23858,15,7C15,7,15,9,15,9C16.104599999999998,9,17,9.895430000000001,17,11C17,11,17,16,17,16C17,17.104599999999998,16.104599999999998,18,15,18C15,18,5,18,5,18C3.89543,18,3,17.104599999999998,3,16C3,16,3,11,3,11C3,9.895430000000001,3.895431,9,5,9C5,9,5,9,5,9ZM13,7C13,7,13,9,13,9C13,9,7,9,7,9C7,9,7,7,7,7C7,5.34315,8.34315,4,10,4C11.65685,4,13,5.34315,13,7C13,7,13,7,13,7Z" fill-rule="evenodd" fill="#111827" fill-opacity="1"/></g></g></svg>