<svg xmlns="http://www.w3.org/2000/svg" xmlns:xlink="http://www.w3.org/1999/xlink" fill="none" version="1.1" width="24" height="24" viewBox="0 0 24 24"><defs><clipPath id="master_svg0_0_3261"><rect x="0" y="0" width="24" height="24" rx="0"/></clipPath></defs><g clip-path="url(#master_svg0_0_3261)"><g><path d="M21.5475,5.74359C21.6679,7.00741,21.5275,7.73338,21.5325,7.73438C22.748,9.10547,23.25,11.05547,23.25,12.5939C23.25,13.823,23.2261,14.9433,22.9448,15.9234C22.6636,16.9036,22.3073,17.7061,21.8855,18.3206C21.4524,18.9451,20.9176,19.4926,20.3034,19.9402C19.6692,20.4127,19.0917,20.7478,18.5691,20.9662C17.9888,21.2005,17.3841,21.369,16.7663,21.4688C16.259999999999998,21.5667,15.7485,21.6352,15.2344,21.6741C15.2344,21.6741,13.8333,21.75,12.0052,21.75C10.17703,21.75,8.77078,21.6741,8.77078,21.6741C8.25659,21.6365,7.74508,21.5686,7.23891,21.4706C6.55594,21.3539,5.95828,21.1912,5.43094,20.9681C4.90828,20.7548,4.33078,20.4145,3.70312,19.942C3.08868,19.4938,2.5524199999999997,18.9472,2.11594,18.3244C1.694062,17.708399999999997,1.3378130000000001,16.9073,1.056563,15.9272C0.7851563,14.94,0.75,13.8281,0.75,12.5991C0.75,11.01,1.2520310000000001,9.08531,2.4726600000000003,7.74984C2.4726600000000003,7.74984,2.33203,7.01953,2.4524999999999997,5.753909999999999C2.55656,4.4845299999999995,2.82438,3.31656,3.25594,2.25C4.76969,2.414062,6.64641,3.28078,8.88609,4.85016C9.64453,4.65188,10.67906,4.55063,12,4.55063C13.3861,4.55063,14.4206,4.65188,15.1139,4.85016C16.1334,4.15406,17.1127,3.58031,18.0417,3.149063C18.9844,2.71875,19.6739,2.503594,20.0958,2.397187C20.5177,2.2907812,20.7389,2.25,20.7389,2.25C21.1725,3.3164100000000003,21.4369,4.47797,21.5475,5.74359ZM12.0553,20.5312C14.7872,20.5312,16.8464,20.2622,18.248,19.597C19.6439,18.9319,20.3522,17.560299999999998,20.3573,15.4988C20.3555,14.3009,19.9102,13.3009,19.0214,12.4988C18.5644,12.06703,18.0267,11.85375,17.4089,11.75203C16.8066,11.65078,15.8723,11.70187,14.6217,11.80313C13.3711,11.90438,12.5925,12.00609,12.0052,12.00609C11.377,12.00609,10.74422,11.91984,9.90563,11.85375C9.06703,11.78766,8.404219999999999,11.69625,7.93172,11.67609C7.44984,11.6625,6.9375,11.66625,6.375,11.80313C5.8125,11.94,5.36063,12.17063,4.98891,12.4988C4.140000000000001,13.2647,3.70828,14.265,3.70828,15.4988C3.70828,17.560299999999998,4.40672,18.9267,5.7825,19.597C7.15828,20.2673,9.2175,20.5312,11.9498,20.5312L12.0553,20.5312ZM6.9375,14.2495C7.25391,13.8131,7.64578,13.5994,8.10281,13.5994C8.53125,13.5994,8.90156,13.8197,9.21281,14.2505C9.52406,14.6813,9.68484,15.2095,9.68484,15.8442C9.68484,16.4789,9.52594,17.0119,9.21281,17.4436C8.89969,17.8753,8.52938,18.0938,8.10281,18.0938C7.64062,18.0938,7.24875,17.8744,6.9375,17.442700000000002C6.62625,17.0109,6.46547,16.4723,6.46547,15.8433C6.46547,15.2142,6.62109,14.6859,6.9375,14.2495ZM14.7872,14.2495C15.1036,13.8131,15.5006,13.5994,15.9525,13.5994C16.384700000000002,13.5994,16.7564,13.8197,17.0677,14.2505C17.3789,14.6813,17.5397,15.2095,17.5397,15.8442C17.5397,16.4789,17.3859,17.0119,17.0677,17.4436C16.7494,17.8753,16.3795,18.0938,15.9525,18.0938C15.4955,18.0938,15.0984,17.8744,14.7872,17.442700000000002C14.4759,17.0109,14.3152,16.4723,14.3152,15.8433C14.3152,15.2142,14.4708,14.6859,14.7872,14.2495Z" fill-rule="evenodd" fill="#373737" fill-opacity="1"/></g></g></svg>